<svg width="20" height="20" viewBox="0 0 20 20" fill="none" xmlns="http://www.w3.org/2000/svg">
<path d="M10 19.375C8.1458 19.375 6.33323 18.8252 4.79152 17.795C3.2498 16.7649 2.04818 15.3007 1.3386 13.5876C0.629031 11.8746 0.443374 9.98958 0.805113 8.17101C1.16685 6.35243 2.05974 4.68197 3.37086 3.37085C5.12902 1.61269 7.51359 0.624969 10 0.624969C12.4864 0.62497 14.871 1.61269 16.6291 3.37085C18.3873 5.12901 19.375 7.51358 19.375 9.99999C19.375 12.4864 18.3873 14.871 16.6291 16.6291C15.7606 17.5024 14.7275 18.1947 13.5896 18.6661C12.4517 19.1374 11.2316 19.3784 10 19.375ZM10 1.87499C5.51989 1.87499 1.875 5.51987 1.875 9.99999C1.875 14.4801 5.51989 18.125 10 18.125C14.4801 18.125 18.125 14.4801 18.125 9.99999C18.125 5.51987 14.4801 1.87499 10 1.87499Z" fill="#7895DE"/>
<path d="M10 13.3839L5.18308 8.5669L6.06691 7.68307L10 11.6161L13.9331 7.68307L14.8169 8.5669L10 13.3839Z" fill="#7895DE"/>
</svg>
