<svg width="21" height="21" viewBox="0 0 21 21" fill="none" xmlns="http://www.w3.org/2000/svg">
<g clip-path="url(#clip0_103_15)">
<path d="M8.73323 20.4004C7.1249 20.4004 5.81657 19.0921 5.81657 17.4837C5.81657 17.2537 6.00323 17.0671 6.23323 17.0671C6.46323 17.0671 6.6499 17.2537 6.6499 17.4837C6.6499 18.6321 7.5849 19.5671 8.73323 19.5671C9.88157 19.5671 10.8166 18.6321 10.8166 17.4837C10.8166 17.2537 11.0032 17.0671 11.2332 17.0671C11.4632 17.0671 11.6499 17.2537 11.6499 17.4837C11.6499 19.0921 10.3416 20.4004 8.73323 20.4004Z" fill="#404040"/>
<path d="M15.8166 17.9004H1.6499C0.960736 17.9004 0.399902 17.3395 0.399902 16.6504C0.399902 16.2845 0.559069 15.9387 0.837402 15.7004C0.854069 15.6862 0.872402 15.6729 0.890736 15.662C2.16824 14.5529 2.8999 12.9545 2.8999 11.267V8.7337C2.8999 5.99037 4.8474 3.58954 7.53157 3.0262C7.75323 2.98037 7.9774 3.12287 8.0249 3.3487C8.0724 3.5737 7.92823 3.79454 7.7024 3.84204C5.4024 4.32454 3.73324 6.38204 3.73324 8.7337V11.267C3.73324 13.2187 2.87824 15.0662 1.38657 16.3345C1.37407 16.3454 1.36157 16.3545 1.34824 16.3637C1.27407 16.4412 1.23324 16.5437 1.23324 16.6504C1.23324 16.8804 1.4199 17.067 1.6499 17.067H15.8166C16.0466 17.067 16.2332 16.8804 16.2332 16.6504C16.2332 16.5429 16.1916 16.4404 16.1182 16.3629C16.1057 16.3545 16.0932 16.3454 16.0816 16.3354C15.3049 15.6812 14.6974 14.862 14.2766 13.9004C14.1841 13.6895 14.2799 13.4437 14.4907 13.3512C14.7032 13.2604 14.9474 13.3554 15.0399 13.5654C15.4024 14.3912 15.9191 15.0962 16.5774 15.662C16.5957 15.6729 16.6132 15.6854 16.6291 15.6995C16.9074 15.9387 17.0666 16.2845 17.0666 16.6504C17.0666 17.3395 16.5057 17.9004 15.8166 17.9004Z" fill="#404040"/>
<path d="M14.9832 10.8337C12.2175 10.8337 9.96657 8.58281 9.96657 5.81706C9.96657 3.0513 12.2175 0.800391 14.9832 0.800391C17.749 0.800391 19.9999 3.0513 19.9999 5.81706C19.9999 8.58281 17.749 10.8337 14.9832 10.8337Z" fill="#FF808D" stroke="#404040" stroke-width="0.8"/>
</g>
<defs>
<clipPath id="clip0_103_15">
<rect x="0.399902" y="0.400391" width="20" height="20" fill="white"/>
</clipPath>
</defs>
</svg>
